<?xml version="1.0" encoding="utf-8"?>
<svg height="200" width="200" viewBox="0 0 69 69" xmlns:xlink="http://www.w3.org/1999/xlink" xmlns="http://www.w3.org/2000/svg">
    <path fill="#FFFFFF" d="M0,0 h69v69H0z" shape-rendering="crispEdges"></path>
    <path fill="#000000" d="M0 0h7v1H0zM17 0h1v1H17zM21 0h6v1H21zM29 0h1v1H29zM31 0h1v1H31zM35 0h1v1H35zM37 0h1v1H37zM39 0h2v1H39zM42 0h2v1H42zM45 0h1v1H45zM48 0h2v1H48zM53 0h3v1H53zM58 0h3v1H58zM62,0 h7v1H62zM0 1h1v1H0zM6 1h1v1H6zM8 1h1v1H8zM14 1h1v1H14zM18 1h1v1H18zM23 1h3v1H23zM27 1h1v1H27zM34 1h3v1H34zM38 1h1v1H38zM41 1h1v1H41zM44 1h1v1H44zM46 1h1v1H46zM48 1h1v1H48zM50 1h2v1H50zM53 1h1v1H53zM57 1h1v1H57zM62 1h1v1H62zM68,1 h1v1H68zM0 2h1v1H0zM2 2h3v1H2zM6 2h1v1H6zM10 2h2v1H10zM13 2h2v1H13zM17 2h1v1H17zM22 2h3v1H22zM26 2h1v1H26zM31 2h1v1H31zM33 2h1v1H33zM37 2h1v1H37zM40 2h1v1H40zM42 2h4v1H42zM49 2h1v1H49zM51 2h8v1H51zM62 2h1v1H62zM64 2h3v1H64zM68,2 h1v1H68zM0 3h1v1H0zM2 3h3v1H2zM6 3h1v1H6zM8 3h1v1H8zM10 3h2v1H10zM15 3h1v1H15zM18 3h4v1H18zM23 3h1v1H23zM25 3h1v1H25zM27 3h6v1H27zM34 3h4v1H34zM43 3h1v1H43zM45 3h5v1H45zM53 3h1v1H53zM55 3h1v1H55zM57 3h1v1H57zM60 3h1v1H60zM62 3h1v1H62zM64 3h3v1H64zM68,3 h1v1H68zM0 4h1v1H0zM2 4h3v1H2zM6 4h1v1H6zM11 4h2v1H11zM14 4h4v1H14zM19 4h1v1H19zM22 4h5v1H22zM31 4h7v1H31zM41 4h2v1H41zM44 4h2v1H44zM47 4h2v1H47zM53 4h2v1H53zM56 4h1v1H56zM58 4h1v1H58zM60 4h1v1H60zM62 4h1v1H62zM64 4h3v1H64zM68,4 h1v1H68zM0 5h1v1H0zM6 5h1v1H6zM8 5h1v1H8zM11 5h1v1H11zM13 5h1v1H13zM17 5h2v1H17zM21 5h1v1H21zM25 5h1v1H25zM29 5h2v1H29zM32 5h1v1H32zM36 5h1v1H36zM38 5h2v1H38zM41 5h1v1H41zM43 5h1v1H43zM46 5h6v1H46zM55 5h1v1H55zM58 5h1v1H58zM62 5h1v1H62zM68,5 h1v1H68zM0 6h7v1H0zM8 6h1v1H8zM10 6h1v1H10zM12 6h1v1H12zM14 6h1v1H14zM16 6h1v1H16zM18 6h1v1H18zM20 6h1v1H20zM22 6h1v1H22zM24 6h1v1H24zM26 6h1v1H26zM28 6h1v1H28zM30 6h1v1H30zM32 6h1v1H32zM34 6h1v1H34zM36 6h1v1H36zM38 6h1v1H38zM40 6h1v1H40zM42 6h1v1H42zM44 6h1v1H44zM46 6h1v1H46zM48 6h1v1H48zM50 6h1v1H50zM52 6h1v1H52zM54 6h1v1H54zM56 6h1v1H56zM58 6h1v1H58zM60 6h1v1H60zM62,6 h7v1H62zM11 7h1v1H11zM13 7h4v1H13zM18 7h1v1H18zM21 7h1v1H21zM23 7h2v1H23zM26 7h3v1H26zM31 7h2v1H31zM36 7h1v1H36zM38 7h1v1H38zM40 7h1v1H40zM43 7h5v1H43zM52 7h1v1H52zM55 7h2v1H55zM59 7h2v1H59zM0 8h5v1H0zM6 8h3v1H6zM10 8h5v1H10zM17 8h5v1H17zM23 8h1v1H23zM28 8h1v1H28zM30 8h1v1H30zM32 8h5v1H32zM42 8h2v1H42zM45 8h5v1H45zM55 8h1v1H55zM59 8h1v1H59zM61 8h1v1H61zM63 8h1v1H63zM65 8h1v1H65zM67 8h1v1H67zM0 9h3v1H0zM4 9h1v1H4zM11 9h2v1H11zM14 9h1v1H14zM17 9h1v1H17zM19 9h1v1H19zM22 9h6v1H22zM29 9h1v1H29zM33 9h3v1H33zM40 9h5v1H40zM49 9h1v1H49zM53 9h2v1H53zM56 9h1v1H56zM59 9h3v1H59zM63 9h1v1H63zM66,9 h3v1H66zM1 10h2v1H1zM5 10h2v1H5zM10 10h1v1H10zM13 10h4v1H13zM18 10h1v1H18zM23 10h1v1H23zM27 10h2v1H27zM31 10h3v1H31zM35 10h4v1H35zM41 10h1v1H41zM43 10h1v1H43zM45 10h7v1H45zM53 10h1v1H53zM55 10h1v1H55zM58 10h3v1H58zM62 10h1v1H62zM64 10h3v1H64zM0 11h1v1H0zM2 11h1v1H2zM4 11h2v1H4zM7 11h1v1H7zM11 11h1v1H11zM14 11h2v1H14zM17 11h2v1H17zM20 11h1v1H20zM25 11h1v1H25zM33 11h1v1H33zM35 11h2v1H35zM39 11h2v1H39zM42 11h3v1H42zM47 11h1v1H47zM49 11h1v1H49zM52 11h1v1H52zM54 11h3v1H54zM59 11h3v1H59zM64 11h3v1H64zM0 12h1v1H0zM2 12h5v1H2zM8 12h6v1H8zM15 12h6v1H15zM28 12h4v1H28zM34 12h4v1H34zM41 12h3v1H41zM48 12h2v1H48zM53 12h1v1H53zM57 12h3v1H57zM62 12h1v1H62zM65 12h1v1H65zM68,12 h1v1H68zM0 13h1v1H0zM7 13h4v1H7zM13 13h1v1H13zM16 13h2v1H16zM21 13h6v1H21zM29 13h1v1H29zM32 13h4v1H32zM37 13h1v1H37zM39 13h5v1H39zM45 13h1v1H45zM48 13h2v1H48zM51 13h1v1H51zM54 13h1v1H54zM59 13h2v1H59zM64 13h2v1H64zM67,13 h2v1H67zM0 14h1v1H0zM4 14h1v1H4zM6 14h1v1H6zM9 14h3v1H9zM15 14h1v1H15zM18 14h1v1H18zM20 14h1v1H20zM26 14h1v1H26zM30 14h3v1H30zM36 14h6v1H36zM46 14h5v1H46zM53 14h1v1H53zM56 14h4v1H56zM61 14h3v1H61zM67 14h1v1H67zM2 15h1v1H2zM5 15h1v1H5zM7 15h1v1H7zM13 15h1v1H13zM15 15h3v1H15zM19 15h4v1H19zM24 15h1v1H24zM26 15h1v1H26zM29 15h3v1H29zM35 15h4v1H35zM40 15h1v1H40zM43 15h2v1H43zM47 15h1v1H47zM50 15h1v1H50zM52 15h1v1H52zM54 15h4v1H54zM59 15h3v1H59zM64,15 h5v1H64zM1 16h2v1H1zM4 16h3v1H4zM8 16h1v1H8zM10 16h2v1H10zM13 16h1v1H13zM15 16h7v1H15zM25 16h1v1H25zM28 16h3v1H28zM32 16h1v1H32zM34 16h3v1H34zM39 16h1v1H39zM42 16h1v1H42zM47 16h2v1H47zM50 16h1v1H50zM53 16h3v1H53zM59 16h1v1H59zM67 16h1v1H67zM1 17h5v1H1zM7 17h2v1H7zM10 17h1v1H10zM16 17h2v1H16zM19 17h1v1H19zM22 17h3v1H22zM26 17h1v1H26zM29 17h1v1H29zM32 17h4v1H32zM37 17h1v1H37zM40 17h3v1H40zM44 17h1v1H44zM47 17h1v1H47zM49 17h1v1H49zM53 17h5v1H53zM60 17h2v1H60zM63 17h2v1H63zM68,17 h1v1H68zM0 18h1v1H0zM2 18h1v1H2zM4 18h7v1H4zM13 18h1v1H13zM15 18h6v1H15zM27 18h6v1H27zM35 18h5v1H35zM41 18h1v1H41zM44 18h1v1H44zM46 18h1v1H46zM48 18h1v1H48zM50 18h1v1H50zM53 18h1v1H53zM58 18h3v1H58zM62 18h2v1H62zM66 18h2v1H66zM8 19h2v1H8zM11 19h4v1H11zM17 19h2v1H17zM21 19h5v1H21zM28 19h2v1H28zM31 19h1v1H31zM35 19h4v1H35zM40 19h1v1H40zM44 19h1v1H44zM47 19h1v1H47zM49 19h1v1H49zM52 19h5v1H52zM59 19h3v1H59zM64 19h3v1H64zM1 20h1v1H1zM6 20h1v1H6zM8 20h2v1H8zM12 20h4v1H12zM17 20h4v1H17zM23 20h1v1H23zM25 20h1v1H25zM28 20h1v1H28zM30 20h2v1H30zM34 20h1v1H34zM36 20h1v1H36zM38 20h1v1H38zM41 20h3v1H41zM45 20h1v1H45zM48 20h1v1H48zM53 20h1v1H53zM55 20h1v1H55zM58 20h1v1H58zM61 20h1v1H61zM63 20h1v1H63zM65 20h1v1H65zM67,20 h2v1H67zM1 21h3v1H1zM7 21h1v1H7zM9 21h1v1H9zM11 21h1v1H11zM14 21h1v1H14zM19 21h1v1H19zM22 21h5v1H22zM29 21h1v1H29zM31 21h1v1H31zM33 21h2v1H33zM37 21h1v1H37zM39 21h1v1H39zM41 21h2v1H41zM47 21h3v1H47zM51 21h2v1H51zM54 21h1v1H54zM56 21h1v1H56zM59 21h2v1H59zM67,21 h2v1H67zM0 22h1v1H0zM2 22h1v1H2zM6 22h3v1H6zM10 22h1v1H10zM13 22h3v1H13zM17 22h3v1H17zM28 22h6v1H28zM35 22h7v1H35zM43 22h1v1H43zM45 22h2v1H45zM48 22h3v1H48zM53 22h1v1H53zM55 22h1v1H55zM57 22h6v1H57zM64 22h1v1H64zM66 22h2v1H66zM7 23h5v1H7zM13 23h2v1H13zM16 23h1v1H16zM18 23h1v1H18zM20 23h4v1H20zM26 23h2v1H26zM29 23h3v1H29zM36 23h2v1H36zM40 23h1v1H40zM43 23h5v1H43zM49 23h1v1H49zM52 23h1v1H52zM56 23h1v1H56zM59 23h3v1H59zM63,23 h6v1H63zM0 24h2v1H0zM3 24h1v1H3zM6 24h2v1H6zM12 24h1v1H12zM15 24h1v1H15zM18 24h4v1H18zM25 24h1v1H25zM28 24h1v1H28zM30 24h6v1H30zM37 24h1v1H37zM39 24h1v1H39zM41 24h3v1H41zM46 24h3v1H46zM53 24h3v1H53zM57 24h1v1H57zM59 24h1v1H59zM67 24h1v1H67zM0 25h1v1H0zM4 25h1v1H4zM7 25h1v1H7zM16 25h2v1H16zM19 25h1v1H19zM22 25h3v1H22zM26 25h2v1H26zM29 25h1v1H29zM33 25h1v1H33zM35 25h1v1H35zM40 25h3v1H40zM47 25h3v1H47zM53 25h4v1H53zM60 25h2v1H60zM64 25h1v1H64zM66,25 h3v1H66zM0 26h3v1H0zM4 26h1v1H4zM6 26h1v1H6zM9 26h1v1H9zM12 26h2v1H12zM15 26h2v1H15zM18 26h4v1H18zM24 26h1v1H24zM26 26h2v1H26zM31 26h9v1H31zM43 26h1v1H43zM45 26h2v1H45zM48 26h1v1H48zM50 26h2v1H50zM58 26h1v1H58zM60 26h4v1H60zM65 26h2v1H65zM1 27h1v1H1zM3 27h1v1H3zM11 27h1v1H11zM13 27h2v1H13zM16 27h2v1H16zM22 27h3v1H22zM27 27h2v1H27zM33 27h1v1H33zM39 27h2v1H39zM43 27h2v1H43zM47 27h1v1H47zM51 27h6v1H51zM60 27h2v1H60zM63 27h4v1H63zM68,27 h1v1H68zM0 28h1v1H0zM3 28h1v1H3zM6 28h1v1H6zM10 28h2v1H10zM14 28h5v1H14zM20 28h2v1H20zM23 28h1v1H23zM25 28h1v1H25zM28 28h4v1H28zM34 28h3v1H34zM41 28h3v1H41zM47 28h2v1H47zM54 28h2v1H54zM61 28h1v1H61zM67 28h1v1H67zM2 29h4v1H2zM7 29h3v1H7zM17 29h1v1H17zM19 29h1v1H19zM22 29h1v1H22zM24 29h4v1H24zM31 29h1v1H31zM33 29h1v1H33zM35 29h1v1H35zM37 29h1v1H37zM39 29h2v1H39zM42 29h2v1H42zM48 29h1v1H48zM51 29h1v1H51zM54 29h1v1H54zM56 29h1v1H56zM59 29h3v1H59zM64 29h1v1H64zM66 29h1v1H66zM68,29 h1v1H68zM1 30h2v1H1zM4 30h1v1H4zM6 30h10v1H6zM25 30h1v1H25zM27 30h2v1H27zM30 30h3v1H30zM34 30h5v1H34zM41 30h1v1H41zM45 30h9v1H45zM57 30h2v1H57zM60 30h4v1H60zM67 30h1v1H67zM1 31h1v1H1zM8 31h1v1H8zM10 31h3v1H10zM18 31h1v1H18zM20 31h1v1H20zM22 31h1v1H22zM25 31h1v1H25zM27 31h5v1H27zM33 31h1v1H33zM36 31h1v1H36zM38 31h1v1H38zM40 31h1v1H40zM42 31h1v1H42zM44 31h4v1H44zM49 31h4v1H49zM54 31h1v1H54zM56 31h1v1H56zM59 31h1v1H59zM61 31h1v1H61zM64 31h3v1H64zM2 32h1v1H2zM4 32h5v1H4zM11 32h3v1H11zM16 32h1v1H16zM18 32h3v1H18zM23 32h1v1H23zM27 32h4v1H27zM32 32h6v1H32zM42 32h2v1H42zM47 32h2v1H47zM53 32h3v1H53zM59 32h6v1H59zM67 32h1v1H67zM0 33h1v1H0zM3 33h2v1H3zM8 33h1v1H8zM10 33h1v1H10zM12 33h2v1H12zM15 33h1v1H15zM17 33h1v1H17zM19 33h1v1H19zM22 33h5v1H22zM29 33h1v1H29zM32 33h1v1H32zM36 33h2v1H36zM41 33h3v1H41zM47 33h3v1H47zM51 33h4v1H51zM59 33h2v1H59zM64 33h3v1H64zM68,33 h1v1H68zM1 34h2v1H1zM4 34h1v1H4zM6 34h1v1H6zM8 34h1v1H8zM10 34h2v1H10zM14 34h1v1H14zM18 34h2v1H18zM21 34h1v1H21zM27 34h1v1H27zM29 34h4v1H29zM34 34h1v1H34zM36 34h1v1H36zM38 34h2v1H38zM43 34h1v1H43zM45 34h2v1H45zM49 34h3v1H49zM53 34h1v1H53zM55 34h1v1H55zM57 34h2v1H57zM60 34h1v1H60zM62 34h1v1H62zM64 34h1v1H64zM67 34h1v1H67zM0 35h5v1H0zM8 35h3v1H8zM12 35h1v1H12zM17 35h1v1H17zM20 35h2v1H20zM26 35h4v1H26zM32 35h1v1H32zM36 35h1v1H36zM39 35h2v1H39zM42 35h6v1H42zM52 35h1v1H52zM54 35h1v1H54zM56 35h3v1H56zM60 35h1v1H60zM64 35h3v1H64zM0 36h2v1H0zM3 36h7v1H3zM12 36h1v1H12zM14 36h1v1H14zM16 36h5v1H16zM25 36h1v1H25zM28 36h10v1H28zM41 36h3v1H41zM45 36h1v1H45zM47 36h5v1H47zM54 36h2v1H54zM57 36h1v1H57zM59 36h7v1H59zM68,36 h1v1H68zM2 37h2v1H2zM7 37h1v1H7zM9 37h1v1H9zM11 37h1v1H11zM13 37h2v1H13zM19 37h1v1H19zM21 37h6v1H21zM31 37h2v1H31zM34 37h4v1H34zM39 37h1v1H39zM41 37h4v1H41zM48 37h2v1H48zM51 37h1v1H51zM53 37h2v1H53zM60 37h4v1H60zM65 37h1v1H65zM67,37 h2v1H67zM3 38h1v1H3zM5 38h3v1H5zM10 38h2v1H10zM16 38h4v1H16zM23 38h1v1H23zM25 38h1v1H25zM27 38h1v1H27zM30 38h1v1H30zM33 38h1v1H33zM35 38h1v1H35zM38 38h1v1H38zM41 38h1v1H41zM44 38h5v1H44zM50 38h2v1H50zM57 38h2v1H57zM63 38h2v1H63zM66 38h2v1H66zM2 39h2v1H2zM5 39h1v1H5zM9 39h2v1H9zM14 39h1v1H14zM18 39h1v1H18zM23 39h2v1H23zM26 39h2v1H26zM30 39h3v1H30zM35 39h3v1H35zM39 39h6v1H39zM50 39h1v1H50zM52 39h3v1H52zM56 39h2v1H56zM59 39h8v1H59zM68,39 h1v1H68zM0 40h3v1H0zM6 40h2v1H6zM9 40h1v1H9zM12 40h1v1H12zM14 40h2v1H14zM18 40h3v1H18zM25 40h1v1H25zM28 40h3v1H28zM37 40h1v1H37zM42 40h2v1H42zM45 40h1v1H45zM47 40h2v1H47zM54 40h2v1H54zM62 40h3v1H62zM67 40h1v1H67zM2 41h1v1H2zM4 41h2v1H4zM7 41h1v1H7zM9 41h1v1H9zM11 41h2v1H11zM15 41h1v1H15zM17 41h1v1H17zM19 41h1v1H19zM21 41h7v1H21zM29 41h1v1H29zM31 41h4v1H31zM37 41h1v1H37zM39 41h6v1H39zM48 41h2v1H48zM53 41h5v1H53zM60 41h2v1H60zM67,41 h2v1H67zM0 42h3v1H0zM4 42h1v1H4zM6 42h1v1H6zM8 42h3v1H8zM18 42h1v1H18zM20 42h2v1H20zM24 42h1v1H24zM26 42h5v1H26zM32 42h2v1H32zM37 42h3v1H37zM45 42h2v1H45zM49 42h3v1H49zM53 42h1v1H53zM58 42h2v1H58zM61 42h1v1H61zM63 42h2v1H63zM66 42h1v1H66zM0 43h2v1H0zM3 43h3v1H3zM8 43h3v1H8zM12 43h3v1H12zM17 43h2v1H17zM20 43h2v1H20zM25 43h1v1H25zM27 43h3v1H27zM34 43h3v1H34zM38 43h3v1H38zM43 43h2v1H43zM47 43h1v1H47zM49 43h1v1H49zM51 43h6v1H51zM58 43h2v1H58zM62,43 h7v1H62zM0 44h2v1H0zM5 44h2v1H5zM9 44h4v1H9zM16 44h1v1H16zM18 44h3v1H18zM23 44h1v1H23zM25 44h1v1H25zM28 44h3v1H28zM32 44h2v1H32zM35 44h3v1H35zM41 44h3v1H41zM45 44h1v1H45zM47 44h2v1H47zM50 44h1v1H50zM57 44h1v1H57zM60 44h2v1H60zM64 44h1v1H64zM68,44 h1v1H68zM0 45h2v1H0zM3 45h1v1H3zM5 45h1v1H5zM7 45h4v1H7zM14 45h1v1H14zM17 45h1v1H17zM19 45h1v1H19zM22 45h3v1H22zM26 45h1v1H26zM29 45h1v1H29zM31 45h1v1H31zM34 45h1v1H34zM37 45h1v1H37zM40 45h1v1H40zM42 45h2v1H42zM47 45h2v1H47zM51 45h5v1H51zM60 45h2v1H60zM63 45h1v1H63zM66,45 h3v1H66zM1 46h1v1H1zM3 46h4v1H3zM8 46h1v1H8zM11 46h1v1H11zM14 46h1v1H14zM18 46h1v1H18zM21 46h1v1H21zM23 46h2v1H23zM26 46h1v1H26zM32 46h1v1H32zM35 46h1v1H35zM37 46h5v1H37zM45 46h2v1H45zM48 46h3v1H48zM53 46h1v1H53zM56 46h3v1H56zM60 46h1v1H60zM65 46h1v1H65zM3 47h1v1H3zM5 47h1v1H5zM8 47h1v1H8zM11 47h1v1H11zM13 47h3v1H13zM18 47h2v1H18zM23 47h1v1H23zM27 47h4v1H27zM32 47h1v1H32zM34 47h4v1H34zM40 47h1v1H40zM44 47h1v1H44zM47 47h1v1H47zM52 47h1v1H52zM54 47h1v1H54zM56 47h1v1H56zM59 47h1v1H59zM61 47h2v1H61zM66 47h2v1H66zM1 48h1v1H1zM5 48h3v1H5zM10 48h1v1H10zM12 48h3v1H12zM16 48h6v1H16zM27 48h2v1H27zM30 48h1v1H30zM32 48h1v1H32zM36 48h1v1H36zM38 48h1v1H38zM43 48h1v1H43zM46 48h3v1H46zM53 48h3v1H53zM60 48h1v1H60zM62 48h1v1H62zM64 48h2v1H64zM68,48 h1v1H68zM0 49h1v1H0zM3 49h1v1H3zM5 49h1v1H5zM9 49h1v1H9zM11 49h1v1H11zM17 49h1v1H17zM22 49h5v1H22zM29 49h1v1H29zM31 49h1v1H31zM33 49h2v1H33zM37 49h1v1H37zM39 49h1v1H39zM41 49h2v1H41zM44 49h2v1H44zM48 49h2v1H48zM51 49h5v1H51zM57 49h1v1H57zM60 49h1v1H60zM62 49h2v1H62zM66 49h1v1H66zM68,49 h1v1H68zM0 50h2v1H0zM3 50h2v1H3zM6 50h1v1H6zM8 50h2v1H8zM11 50h1v1H11zM13 50h2v1H13zM16 50h1v1H16zM18 50h1v1H18zM21 50h1v1H21zM24 50h1v1H24zM26 50h4v1H26zM38 50h1v1H38zM43 50h1v1H43zM46 50h1v1H46zM48 50h1v1H48zM50 50h4v1H50zM55 50h1v1H55zM58 50h1v1H58zM60 50h2v1H60zM63 50h1v1H63zM65 50h2v1H65zM68,50 h1v1H68zM0 51h1v1H0zM2 51h1v1H2zM4 51h2v1H4zM8 51h2v1H8zM13 51h1v1H13zM15 51h1v1H15zM17 51h3v1H17zM23 51h2v1H23zM26 51h1v1H26zM30 51h9v1H30zM40 51h1v1H40zM42 51h1v1H42zM44 51h4v1H44zM52 51h5v1H52zM58 51h2v1H58zM62 51h2v1H62zM66 51h2v1H66zM0 52h3v1H0zM4 52h3v1H4zM9 52h1v1H9zM11 52h1v1H11zM13 52h1v1H13zM16 52h5v1H16zM23 52h1v1H23zM25 52h1v1H25zM28 52h3v1H28zM36 52h1v1H36zM41 52h3v1H41zM45 52h5v1H45zM51 52h1v1H51zM53 52h1v1H53zM57 52h1v1H57zM62 52h4v1H62zM2 53h1v1H2zM5 53h1v1H5zM7 53h2v1H7zM10 53h1v1H10zM15 53h1v1H15zM19 53h1v1H19zM22 53h3v1H22zM26 53h1v1H26zM29 53h1v1H29zM31 53h4v1H31zM37 53h1v1H37zM41 53h2v1H41zM45 53h1v1H45zM47 53h2v1H47zM51 53h1v1H51zM54 53h1v1H54zM59 53h3v1H59zM68,53 h1v1H68zM0 54h1v1H0zM2 54h1v1H2zM6 54h1v1H6zM8 54h1v1H8zM10 54h1v1H10zM12 54h1v1H12zM14 54h1v1H14zM16 54h4v1H16zM21 54h1v1H21zM23 54h2v1H23zM26 54h2v1H26zM29 54h2v1H29zM32 54h1v1H32zM38 54h2v1H38zM41 54h1v1H41zM46 54h8v1H46zM56 54h1v1H56zM58 54h1v1H58zM61 54h1v1H61zM63 54h1v1H63zM65 54h1v1H65zM67 54h1v1H67zM0 55h1v1H0zM2 55h2v1H2zM8 55h1v1H8zM10 55h1v1H10zM14 55h2v1H14zM17 55h2v1H17zM20 55h1v1H20zM22 55h1v1H22zM24 55h1v1H24zM27 55h1v1H27zM29 55h1v1H29zM33 55h1v1H33zM35 55h2v1H35zM40 55h2v1H40zM43 55h3v1H43zM52 55h1v1H52zM54 55h3v1H54zM59 55h2v1H59zM62 55h2v1H62zM65 55h2v1H65zM4 56h3v1H4zM9 56h4v1H9zM14 56h1v1H14zM16 56h3v1H16zM20 56h1v1H20zM23 56h1v1H23zM25 56h1v1H25zM28 56h5v1H28zM37 56h2v1H37zM42 56h1v1H42zM46 56h4v1H46zM54 56h1v1H54zM60 56h2v1H60zM63 56h3v1H63zM68,56 h1v1H68zM2 57h1v1H2zM4 57h1v1H4zM7 57h1v1H7zM9 57h1v1H9zM12 57h1v1H12zM15 57h1v1H15zM19 57h1v1H19zM22 57h5v1H22zM29 57h1v1H29zM31 57h2v1H31zM34 57h1v1H34zM40 57h1v1H40zM42 57h4v1H42zM48 57h2v1H48zM53 57h2v1H53zM68,57 h1v1H68zM0 58h1v1H0zM2 58h1v1H2zM4 58h5v1H4zM10 58h3v1H10zM14 58h2v1H14zM18 58h2v1H18zM23 58h3v1H23zM28 58h1v1H28zM32 58h1v1H32zM35 58h1v1H35zM37 58h3v1H37zM41 58h1v1H41zM43 58h1v1H43zM46 58h8v1H46zM55 58h1v1H55zM57 58h2v1H57zM61 58h1v1H61zM63 58h1v1H63zM65 58h1v1H65zM67 58h1v1H67zM0 59h1v1H0zM8 59h2v1H8zM15 59h3v1H15zM19 59h1v1H19zM23 59h6v1H23zM30 59h1v1H30zM34 59h3v1H34zM39 59h7v1H39zM49 59h1v1H49zM52 59h8v1H52zM62 59h5v1H62zM0 60h1v1H0zM3 60h2v1H3zM6 60h3v1H6zM10 60h3v1H10zM15 60h7v1H15zM28 60h3v1H28zM32 60h5v1H32zM38 60h1v1H38zM41 60h3v1H41zM46 60h3v1H46zM50 60h1v1H50zM53 60h1v1H53zM55 60h1v1H55zM57 60h1v1H57zM60 60h6v1H60zM8 61h6v1H8zM17 61h1v1H17zM19 61h1v1H19zM22 61h5v1H22zM29 61h1v1H29zM31 61h2v1H31zM36 61h2v1H36zM39 61h5v1H39zM49 61h1v1H49zM51 61h1v1H51zM53 61h2v1H53zM57 61h1v1H57zM59 61h2v1H59zM64 61h1v1H64zM66,61 h3v1H66zM0 62h7v1H0zM8 62h5v1H8zM15 62h1v1H15zM17 62h2v1H17zM21 62h1v1H21zM30 62h3v1H30zM34 62h1v1H34zM36 62h3v1H36zM41 62h1v1H41zM46 62h1v1H46zM49 62h3v1H49zM53 62h1v1H53zM58 62h3v1H58zM62 62h1v1H62zM64 62h3v1H64zM0 63h1v1H0zM6 63h1v1H6zM9 63h1v1H9zM11 63h3v1H11zM17 63h1v1H17zM19 63h1v1H19zM21 63h7v1H21zM29 63h1v1H29zM32 63h1v1H32zM36 63h1v1H36zM38 63h3v1H38zM42 63h3v1H42zM47 63h1v1H47zM49 63h1v1H49zM52 63h1v1H52zM54 63h4v1H54zM59 63h2v1H59zM64,63 h5v1H64zM0 64h1v1H0zM2 64h3v1H2zM6 64h1v1H6zM8 64h1v1H8zM11 64h2v1H11zM14 64h1v1H14zM16 64h5v1H16zM23 64h1v1H23zM28 64h3v1H28zM32 64h5v1H32zM41 64h1v1H41zM43 64h1v1H43zM47 64h4v1H47zM57 64h2v1H57zM60 64h6v1H60zM67 64h1v1H67zM0 65h1v1H0zM2 65h3v1H2zM6 65h1v1H6zM8 65h6v1H8zM19 65h1v1H19zM22 65h6v1H22zM31 65h2v1H31zM35 65h2v1H35zM40 65h3v1H40zM47 65h3v1H47zM53 65h3v1H53zM57 65h1v1H57zM59 65h1v1H59zM61 65h1v1H61zM64 65h3v1H64zM0 66h1v1H0zM2 66h3v1H2zM6 66h1v1H6zM8 66h3v1H8zM14 66h1v1H14zM16 66h3v1H16zM20 66h2v1H20zM23 66h2v1H23zM26 66h1v1H26zM28 66h1v1H28zM30 66h2v1H30zM34 66h1v1H34zM37 66h2v1H37zM41 66h1v1H41zM43 66h1v1H43zM45 66h2v1H45zM48 66h6v1H48zM55 66h1v1H55zM58 66h3v1H58zM65 66h2v1H65zM0 67h1v1H0zM6 67h1v1H6zM8 67h1v1H8zM11 67h2v1H11zM15 67h1v1H15zM22 67h3v1H22zM26 67h1v1H26zM31 67h2v1H31zM34 67h2v1H34zM37 67h2v1H37zM40 67h1v1H40zM42 67h6v1H42zM49 67h1v1H49zM52 67h1v1H52zM56 67h2v1H56zM59 67h3v1H59zM63 67h4v1H63zM0 68h7v1H0zM8 68h4v1H8zM13 68h1v1H13zM15 68h7v1H15zM23 68h1v1H23zM25 68h1v1H25zM28 68h3v1H28zM33 68h1v1H33zM35 68h2v1H35zM41 68h3v1H41zM48 68h2v1H48zM54 68h2v1H54zM57 68h9v1H57zM67 68h1v1H67z" shape-rendering="crispEdges"></path>
</svg>