<?xml version="1.0" encoding="utf-8"?>
<svg height="200" width="200" viewBox="0 0 33 33" xmlns:xlink="http://www.w3.org/1999/xlink" xmlns="http://www.w3.org/2000/svg" >
    <path fill="#FFFFFF" d="M0,0 h33v33H0z" shape-rendering="crispEdges"></path>
    <path fill="#000000" d="M0 0h7v1H0zM11 0h1v1H11zM14 0h1v1H14zM19 0h1v1H19zM21 0h3v1H21zM26,0 h7v1H26zM0 1h1v1H0zM6 1h1v1H6zM9 1h1v1H9zM13 1h4v1H13zM26 1h1v1H26zM32,1 h1v1H32zM0 2h1v1H0zM2 2h3v1H2zM6 2h1v1H6zM8 2h2v1H8zM12 2h1v1H12zM15 2h2v1H15zM20 2h3v1H20zM24 2h1v1H24zM26 2h1v1H26zM28 2h3v1H28zM32,2 h1v1H32zM0 3h1v1H0zM2 3h3v1H2zM6 3h1v1H6zM8 3h3v1H8zM12 3h2v1H12zM15 3h4v1H15zM20 3h1v1H20zM23 3h1v1H23zM26 3h1v1H26zM28 3h3v1H28zM32,3 h1v1H32zM0 4h1v1H0zM2 4h3v1H2zM6 4h1v1H6zM8 4h7v1H8zM19 4h6v1H19zM26 4h1v1H26zM28 4h3v1H28zM32,4 h1v1H32zM0 5h1v1H0zM6 5h1v1H6zM8 5h1v1H8zM11 5h1v1H11zM15 5h3v1H15zM22 5h1v1H22zM24 5h1v1H24zM26 5h1v1H26zM32,5 h1v1H32zM0 6h7v1H0zM8 6h1v1H8zM10 6h1v1H10zM12 6h1v1H12zM14 6h1v1H14zM16 6h1v1H16zM18 6h1v1H18zM20 6h1v1H20zM22 6h1v1H22zM24 6h1v1H24zM26,6 h7v1H26zM8 7h1v1H8zM11 7h2v1H11zM15 7h1v1H15zM18 7h2v1H18zM21 7h3v1H21zM0 8h1v1H0zM2 8h5v1H2zM13 8h2v1H13zM16 8h2v1H16zM19 8h2v1H19zM26 8h5v1H26zM3 9h1v1H3zM9 9h2v1H9zM13 9h2v1H13zM17 9h1v1H17zM19 9h1v1H19zM21 9h4v1H21zM26 9h1v1H26zM30,9 h3v1H30zM1 10h6v1H1zM8 10h2v1H8zM11 10h2v1H11zM15 10h2v1H15zM18 10h1v1H18zM22 10h1v1H22zM24 10h2v1H24zM29 10h1v1H29zM1 11h1v1H1zM3 11h3v1H3zM7 11h1v1H7zM9 11h2v1H9zM12 11h1v1H12zM14 11h1v1H14zM16 11h1v1H16zM18 11h1v1H18zM21 11h2v1H21zM24 11h1v1H24zM30,11 h3v1H30zM0 12h1v1H0zM3 12h4v1H3zM9 12h2v1H9zM15 12h3v1H15zM20 12h1v1H20zM22 12h2v1H22zM25 12h1v1H25zM28 12h2v1H28zM31 12h1v1H31zM0 13h6v1H0zM7 13h1v1H7zM11 13h1v1H11zM13 13h1v1H13zM17 13h1v1H17zM19 13h6v1H19zM26 13h1v1H26zM30 13h1v1H30zM32,13 h1v1H32zM1 14h2v1H1zM4 14h1v1H4zM6 14h1v1H6zM10 14h1v1H10zM15 14h1v1H15zM18 14h1v1H18zM22 14h1v1H22zM24 14h2v1H24zM27 14h1v1H27zM30 14h2v1H30zM1 15h1v1H1zM8 15h4v1H8zM13 15h2v1H13zM16 15h1v1H16zM18 15h2v1H18zM21 15h1v1H21zM23 15h1v1H23zM25 15h2v1H25zM29 15h2v1H29zM32,15 h1v1H32zM1 16h1v1H1zM5 16h5v1H5zM13 16h3v1H13zM17 16h1v1H17zM20 16h1v1H20zM22 16h1v1H22zM25 16h1v1H25zM28 16h2v1H28zM0 17h2v1H0zM3 17h1v1H3zM5 17h1v1H5zM10 17h2v1H10zM13 17h1v1H13zM16 17h1v1H16zM19 17h5v1H19zM26 17h2v1H26zM30,17 h3v1H30zM0 18h3v1H0zM4 18h3v1H4zM8 18h2v1H8zM13 18h1v1H13zM15 18h4v1H15zM22 18h1v1H22zM24 18h2v1H24zM29 18h3v1H29zM3 19h2v1H3zM8 19h1v1H8zM10 19h2v1H10zM14 19h1v1H14zM18 19h1v1H18zM20 19h2v1H20zM26 19h1v1H26zM29 19h3v1H29zM0 20h8v1H0zM9 20h1v1H9zM13 20h2v1H13zM17 20h1v1H17zM20 20h1v1H20zM22 20h2v1H22zM25 20h1v1H25zM27 20h3v1H27zM31,20 h2v1H31zM0 21h1v1H0zM3 21h2v1H3zM7 21h2v1H7zM10 21h2v1H10zM16 21h1v1H16zM19 21h1v1H19zM21 21h1v1H21zM23 21h1v1H23zM25 21h2v1H25zM32,21 h1v1H32zM0 22h1v1H0zM3 22h2v1H3zM6 22h1v1H6zM9 22h1v1H9zM12 22h5v1H12zM21 22h2v1H21zM25 22h1v1H25zM30 22h2v1H30zM0 23h1v1H0zM3 23h2v1H3zM8 23h2v1H8zM12 23h4v1H12zM18 23h5v1H18zM26 23h1v1H26zM29 23h2v1H29zM32,23 h1v1H32zM0 24h1v1H0zM2 24h2v1H2zM6 24h5v1H6zM12 24h1v1H12zM17 24h1v1H17zM20 24h1v1H20zM22 24h1v1H22zM24 24h5v1H24zM31,24 h2v1H31zM8 25h2v1H8zM14 25h1v1H14zM16 25h1v1H16zM18 25h4v1H18zM24 25h1v1H24zM28 25h1v1H28zM30 25h1v1H30zM32,25 h1v1H32zM0 26h7v1H0zM9 26h2v1H9zM14 26h2v1H14zM17 26h2v1H17zM20 26h5v1H20zM26 26h1v1H26zM28 26h4v1H28zM0 27h1v1H0zM6 27h1v1H6zM8 27h1v1H8zM11 27h2v1H11zM14 27h1v1H14zM16 27h1v1H16zM19 27h1v1H19zM21 27h1v1H21zM23 27h2v1H23zM28 27h4v1H28zM0 28h1v1H0zM2 28h3v1H2zM6 28h1v1H6zM8 28h1v1H8zM12 28h1v1H12zM16 28h2v1H16zM24 28h6v1H24zM0 29h1v1H0zM2 29h3v1H2zM6 29h1v1H6zM8 29h7v1H8zM16 29h1v1H16zM19 29h4v1H19zM24 29h2v1H24zM27 29h2v1H27zM30,29 h3v1H30zM0 30h1v1H0zM2 30h3v1H2zM6 30h1v1H6zM8 30h3v1H8zM12 30h2v1H12zM15 30h2v1H15zM18 30h1v1H18zM22 30h1v1H22zM24 30h3v1H24zM29 30h1v1H29zM0 31h1v1H0zM6 31h1v1H6zM10 31h2v1H10zM13 31h1v1H13zM16 31h1v1H16zM19 31h5v1H19zM25 31h1v1H25zM27 31h2v1H27zM30 31h1v1H30zM0 32h7v1H0zM8 32h1v1H8zM12 32h1v1H12zM14 32h2v1H14zM17 32h1v1H17zM22 32h1v1H22zM24 32h2v1H24zM27 32h1v1H27zM29 32h1v1H29zM31 32h1v1H31z" shape-rendering="crispEdges"></path>
</svg>