<?xml version="1.0" encoding="utf-8"?>
<svg height="200" width="200" viewBox="0 0 21 21" xmlns:xlink="http://www.w3.org/1999/xlink" xmlns="http://www.w3.org/2000/svg">
    <path fill="#FFFFFF" d="M0,0 h21v21H0z" shape-rendering="crispEdges"></path><path fill="#000000" d="M0 0h7v1H0zM8 0h1v1H8zM11 0h1v1H11zM14,0 h7v1H14zM0 1h1v1H0zM6 1h1v1H6zM8 1h1v1H8zM10 1h3v1H10zM14 1h1v1H14zM20,1 h1v1H20zM0 2h1v1H0zM2 2h3v1H2zM6 2h1v1H6zM9 2h1v1H9zM12 2h1v1H12zM14 2h1v1H14zM16 2h3v1H16zM20,2 h1v1H20zM0 3h1v1H0zM2 3h3v1H2zM6 3h1v1H6zM8 3h2v1H8zM12 3h1v1H12zM14 3h1v1H14zM16 3h3v1H16zM20,3 h1v1H20zM0 4h1v1H0zM2 4h3v1H2zM6 4h1v1H6zM9 4h1v1H9zM11 4h1v1H11zM14 4h1v1H14zM16 4h3v1H16zM20,4 h1v1H20zM0 5h1v1H0zM6 5h1v1H6zM9 5h2v1H9zM14 5h1v1H14zM20,5 h1v1H20zM0 6h7v1H0zM8 6h1v1H8zM10 6h1v1H10zM12 6h1v1H12zM14,6 h7v1H14zM8 7h1v1H8zM10 7h2v1H10zM0 8h1v1H0zM2 8h2v1H2zM5 8h3v1H5zM10 8h1v1H10zM14 8h1v1H14zM17 8h1v1H17zM19,8 h2v1H19zM5 9h1v1H5zM8 9h3v1H8zM12 9h1v1H12zM16 9h1v1H16zM18,9 h3v1H18zM0 10h4v1H0zM6 10h4v1H6zM13 10h1v1H13zM17 10h1v1H17zM19,10 h2v1H19zM2 11h1v1H2zM4 11h2v1H4zM8 11h1v1H8zM10 11h1v1H10zM12 11h1v1H12zM14 11h3v1H14zM2 12h1v1H2zM6 12h1v1H6zM8 12h2v1H8zM12 12h1v1H12zM15 12h2v1H15zM18 12h1v1H18zM20,12 h1v1H20zM8 13h2v1H8zM11 13h1v1H11zM14,13 h7v1H14zM0 14h7v1H0zM8 14h1v1H8zM17 14h1v1H17zM19,14 h2v1H19zM0 15h1v1H0zM6 15h1v1H6zM8 15h2v1H8zM12 15h2v1H12zM19 15h1v1H19zM0 16h1v1H0zM2 16h3v1H2zM6 16h1v1H6zM9 16h1v1H9zM13 16h1v1H13zM16 16h1v1H16zM0 17h1v1H0zM2 17h3v1H2zM6 17h1v1H6zM8 17h2v1H8zM11 17h1v1H11zM15 17h1v1H15zM17 17h1v1H17zM19 17h1v1H19zM0 18h1v1H0zM2 18h3v1H2zM6 18h1v1H6zM8 18h3v1H8zM13 18h6v1H13zM0 19h1v1H0zM6 19h1v1H6zM11 19h2v1H11zM14 19h1v1H14zM17 19h1v1H17zM0 20h7v1H0zM8 20h2v1H8zM11 20h4v1H11zM19 20h1v1H19z" shape-rendering="crispEdges"></path>
</svg>